<?xml version="1.0" encoding="utf-8"?>
<!-- Generator: Adobe Illustrator 15.0.2, SVG Export Plug-In . SVG Version: 6.00 Build 0)  -->
<!DOCTYPE svg PUBLIC "-//W3C//DTD SVG 1.1//EN" "http://www.w3.org/Graphics/SVG/1.1/DTD/svg11.dtd">
<svg version="1.1" id="Layer_1" xmlns="http://www.w3.org/2000/svg" xmlns:xlink="http://www.w3.org/1999/xlink" x="0px" y="0px"
	 width="15.984px" height="15.984px" viewBox="0 0 15.984 15.984" enable-background="new 0 0 15.984 15.984" xml:space="preserve">
<path fill="none" d="M7.992,0C3.579,0,0,3.578,0,7.992c0,4.412,3.579,7.992,7.992,7.992c4.416,0,7.992-3.58,7.992-7.992
	C15.984,3.578,12.408,0,7.992,0z"/>
<g>
	<path d="M7.58,8.333C7.319,8.103,7.09,7.901,7.09,7.707c0-0.197,0.165-0.348,0.375-0.538C7.807,6.865,8.127,6.43,8.127,5.608
		c0-0.725-0.092-1.209-0.668-1.517c0.06-0.031,0.273-0.053,0.378-0.068C8.15,3.979,8.608,3.932,8.608,3.676V3.625H6.326
		C6.303,3.626,4.019,3.71,4.019,5.804c0,0.737,0.247,1.273,0.736,1.588c0.398,0.257,0.863,0.296,1.104,0.296
		c0.058,0,0.106-0.002,0.137-0.004c0,0-0.074,0.498,0.293,0.99H6.271c-0.64,0-2.726,0.134-2.726,1.85
		c0,1.741,1.913,1.831,2.301,1.831c0.028,0,0.048,0,0.048,0c0.005,0,0.031,0,0.079,0c0.245,0,0.884-0.031,1.475-0.318
		c0.771-0.371,1.158-1.021,1.16-1.927C8.608,9.233,8.015,8.715,7.58,8.333z M6.262,7.114C5.768,7.114,5.28,6.616,5.1,5.93
		C4.998,5.541,5.006,5.204,5.122,4.88C5.236,4.56,5.44,4.344,5.701,4.271C5.762,4.253,5.826,4.245,5.89,4.245
		c0.595,0,0.977,0.248,1.214,1.081c0.225,0.786-0.112,1.61-0.652,1.765C6.39,7.107,6.325,7.114,6.262,7.114z M6.251,11.552
		c-0.909,0.065-1.657-0.344-1.702-1.039c-0.021-0.333,0.127-0.663,0.414-0.924c0.293-0.265,0.694-0.432,1.133-0.462
		c0.049-0.004,0.1-0.004,0.151-0.004c0.844,0,1.412,0.492,1.452,1.153C7.745,10.973,7.147,11.487,6.251,11.552z"/>
	<polygon points="10.947,7.04 10.947,5.552 10.009,5.552 10.009,7.04 8.521,7.04 8.521,7.982 10.01,7.982 10.01,9.472 10.947,9.472 
		10.947,7.982 12.435,7.982 12.435,7.04 	"/>
</g>
</svg>
