<?xml version="1.0" encoding="utf-8"?>
<!-- Generator: Adobe Illustrator 15.0.2, SVG Export Plug-In . SVG Version: 6.00 Build 0)  -->
<!DOCTYPE svg PUBLIC "-//W3C//DTD SVG 1.1//EN" "http://www.w3.org/Graphics/SVG/1.1/DTD/svg11.dtd">
<svg version="1.1" id="Layer_1" xmlns="http://www.w3.org/2000/svg" xmlns:xlink="http://www.w3.org/1999/xlink" x="0px" y="0px"
	 width="15.984px" height="15.985px" viewBox="0.008 0.007 15.984 15.985" enable-background="new 0.008 0.007 15.984 15.985"
	 xml:space="preserve">
<path fill="#FFFFFF" d="M8,0.007C3.587,0.007,0.008,3.585,0.008,8S3.587,15.993,8,15.993c4.414,0,7.992-3.579,7.992-7.993
	C15.992,3.586,12.414,0.007,8,0.007z M12.691,5.816c0.003,0.1,0.007,0.2,0.007,0.301c0,3.062-2.333,6.593-6.595,6.593
	c-1.311,0-2.526-0.383-3.552-1.04c0.183,0.021,0.365,0.031,0.553,0.031c1.085,0,2.086-0.369,2.879-0.992
	c-1.015-0.019-1.87-0.688-2.166-1.609c0.141,0.027,0.287,0.042,0.438,0.042c0.211,0,0.416-0.028,0.611-0.083
	C3.806,8.845,3.006,7.911,3.006,6.787c0-0.01,0-0.02,0-0.029c0.312,0.174,0.67,0.278,1.05,0.292C3.434,6.63,3.024,5.922,3.024,5.119
	c0-0.425,0.116-0.824,0.316-1.166c1.141,1.404,2.849,2.324,4.774,2.42c-0.04-0.167-0.058-0.345-0.058-0.527
	c0-1.28,1.038-2.317,2.315-2.317c0.669,0,1.27,0.283,1.692,0.731c0.527-0.104,1.023-0.296,1.475-0.561
	c-0.177,0.54-0.542,0.995-1.02,1.283c0.468-0.057,0.912-0.182,1.33-0.366C13.538,5.082,13.144,5.489,12.691,5.816z"/>
</svg>
