<?xml version="1.0" encoding="utf-8"?>
<!-- Generator: Adobe Illustrator 15.0.2, SVG Export Plug-In . SVG Version: 6.00 Build 0)  -->
<!DOCTYPE svg PUBLIC "-//W3C//DTD SVG 1.1//EN" "http://www.w3.org/Graphics/SVG/1.1/DTD/svg11.dtd">
<svg version="1.1" id="Layer_1" xmlns="http://www.w3.org/2000/svg" xmlns:xlink="http://www.w3.org/1999/xlink" x="0px" y="0px"
	 width="15.984px" height="15.984px" viewBox="0 0 15.984 15.984" enable-background="new 0 0 15.984 15.984" xml:space="preserve">
<path fill="none" d="M8,0.007C3.587,0.007,0.008,3.585,0.008,8S3.587,15.993,8,15.993c4.414,0,7.992-3.579,7.992-7.993
	S12.414,0.007,8,0.007z"/>
<path d="M12.691,5.816c0.003,0.101,0.007,0.2,0.007,0.302c0,3.062-2.333,6.593-6.595,6.593c-1.312,0-2.526-0.383-3.553-1.04
	c0.184,0.021,0.365,0.031,0.554,0.031c1.085,0,2.086-0.369,2.879-0.992c-1.016-0.02-1.87-0.688-2.166-1.609
	c0.141,0.027,0.287,0.042,0.438,0.042c0.211,0,0.416-0.027,0.611-0.083c-1.06-0.214-1.86-1.147-1.86-2.271c0-0.011,0-0.021,0-0.029
	c0.312,0.174,0.67,0.278,1.051,0.292C3.434,6.63,3.024,5.922,3.024,5.119c0-0.426,0.116-0.824,0.315-1.166
	c1.142,1.403,2.85,2.323,4.774,2.42c-0.04-0.167-0.058-0.346-0.058-0.527c0-1.28,1.037-2.317,2.314-2.317
	c0.669,0,1.271,0.283,1.692,0.731c0.526-0.104,1.022-0.296,1.475-0.561c-0.177,0.54-0.542,0.994-1.02,1.282
	c0.468-0.057,0.912-0.182,1.33-0.365C13.538,5.082,13.144,5.49,12.691,5.816z"/>
</svg>
