<?xml version="1.0" encoding="utf-8"?>
<!-- Generator: Adobe Illustrator 15.0.2, SVG Export Plug-In . SVG Version: 6.00 Build 0)  -->
<!DOCTYPE svg PUBLIC "-//W3C//DTD SVG 1.1//EN" "http://www.w3.org/Graphics/SVG/1.1/DTD/svg11.dtd">
<svg version="1.1" id="Layer_1" xmlns="http://www.w3.org/2000/svg" xmlns:xlink="http://www.w3.org/1999/xlink" x="0px" y="0px"
	 width="15.984px" height="15.982px" viewBox="0 0 15.984 15.982" enable-background="new 0 0 15.984 15.982" xml:space="preserve">
<path fill="none" d="M7.992-0.001C3.578-0.001,0,3.577,0,7.991s3.578,7.992,7.992,7.992c4.412,0,7.992-3.578,7.992-7.992
	S12.406-0.001,7.992-0.001z"/>
<rect x="4.416" y="6.095" width="1.62" height="5.208"/>
<path d="M5.217,5.455c-0.513,0-0.844-0.359-0.844-0.809c0-0.458,0.343-0.812,0.864-0.812c0.521,0,0.841,0.354,0.852,0.812
	C6.089,5.096,5.76,5.455,5.217,5.455z"/>
<path d="M11.945,11.303h-1.617V8.416c0-0.67-0.235-1.129-0.821-1.129c-0.446,0-0.711,0.312-0.827,0.608
	C8.635,8.001,8.622,8.152,8.622,8.301v3.003H7.005V7.759c0-0.649-0.021-1.191-0.042-1.662h1.404l0.075,0.725h0.031
	c0.215-0.34,0.733-0.841,1.607-0.841c1.064,0,1.863,0.714,1.863,2.248L11.945,11.303L11.945,11.303z"/>
</svg>
